<svg xmlns="http://www.w3.org/2000/svg">
    <g>
        <g stroke="null">
            <path stroke="currentColor" d="m6.5,5.98583l-5,5l5,5m8,0l5,-5l-5,-5" stroke-width="2"
                  stroke-linejoin="round" stroke-linecap="round" fill="none"/>
        </g>
        <g transform="rotate(-33.5298 9.82554 10.6151)" stroke="null">
            <path stroke="null"
                  d="m15.00653,5.83466a1.55523,1.80672 0 0 0 -2.14698,0l-8.65999,10.06032l3.50876,0a1.89663,2.20331 0 0 0 1.33902,-0.64337l5.9592,-6.92281a1.5173,1.76265 0 0 0 0,-2.49415m-6.27404,6.04148l0.79279,-0.92098l1.07349,1.24707l-0.79279,0.92098l-1.07349,-1.24707zm-0.22001,2.74973a1.13798,1.32199 0 0 1 -0.80417,0.38778l-1.67662,0l2.16595,-2.51618l1.07349,1.24707l-0.75865,0.88132zm5.95541,-6.92281l-3.33427,3.87783l-1.07349,-1.24707l3.33806,-3.87342a0.75865,0.88132 0 0 1 1.0697,0a0.75865,0.88132 0 0 1 0,1.24267"
                  fill="currentColor"/>
        </g>
    </g>
</svg>